HIERARCHY
ROOT Hips
{
  OFFSET -69.4423 88.0299 51.6846
  CHANNELS 6 Xposition Yposition Zposition Zrotation Xrotation Yrotation
  JOINT Spine
  {
    OFFSET 12.0259 -0.162853 1.93176e-005
    CHANNELS 3 Zrotation Xrotation Yrotation
    JOINT Spine1
    {
      OFFSET 15.3169 -0.0121909 0
      CHANNELS 3 Zrotation Xrotation Yrotation
      JOINT Spine2
      {
        OFFSET 15.3176 -0.0121922 0
        CHANNELS 3 Zrotation Xrotation Yrotation
        JOINT Neck
        {
          OFFSET 19.9142 1.56236 0
          CHANNELS 3 Zrotation Xrotation Yrotation
          JOINT Head
          {
            OFFSET 6.92646 0 0
            CHANNELS 3 Zrotation Xrotation Yrotation
            End Site
            {
              OFFSET 20.7666 0 0
            }
          }
          JOINT LeftShoulder
          {
            OFFSET -4.94072 -1.14703 8.14416
            CHANNELS 3 Zrotation Xrotation Yrotation
            JOINT LeftArm
            {
              OFFSET 14.108 0 -2.74767e-005
              CHANNELS 3 Zrotation Xrotation Yrotation
              JOINT LeftForeArm
              {
                OFFSET 28.5802 -0.0783412 -0.0284884
                CHANNELS 3 Zrotation Xrotation Yrotation
                JOINT LeftHand
                {
                  OFFSET 27.092 0 0
                  CHANNELS 3 Zrotation Xrotation Yrotation
                  End Site
                  {
                    OFFSET 9.55928 -0.186424 0.145352
                  }
                }
              }
            }
          }
          JOINT RightShoulder
          {
            OFFSET -7.15748 -1.33027 -6.24935
            CHANNELS 3 Zrotation Xrotation Yrotation
            JOINT RightArm
            {
              OFFSET 14.108 0 1.82997e-005
              CHANNELS 3 Zrotation Xrotation Yrotation
              JOINT RightForeArm
              {
                OFFSET 28.5802 -0.0707221 2.30684e-005
                CHANNELS 3 Zrotation Xrotation Yrotation
                JOINT RightHand
                {
                  OFFSET 27.092 0 -1.30073e-005
                  CHANNELS 3 Zrotation Xrotation Yrotation
                  End Site
                  {
                    OFFSET 9.55929 -0.186417 -0.145354
                  }
                }
              }
            }
          }
        }
      }
    }
  }
  JOINT LeftUpLeg
  {
    OFFSET 0.00499725 -0.534999 8.837
    CHANNELS 3 Zrotation Xrotation Yrotation
    JOINT LeftLeg
    {
      OFFSET 39.9035 -0.00124594 0.000252775
      CHANNELS 3 Zrotation Xrotation Yrotation
      JOINT LeftFoot
      {
        OFFSET 39.6689 0 0
        CHANNELS 3 Zrotation Xrotation Yrotation
        JOINT LeftToe
        {
          OFFSET 10.1624 13.6296 0
          CHANNELS 3 Zrotation Xrotation Yrotation
          End Site
          {
            OFFSET 8.38147 0 0
          }
        }
      }
    }
  }
  JOINT RightUpLeg
  {
    OFFSET 0.00499725 -0.535 -8.837
    CHANNELS 3 Zrotation Xrotation Yrotation
    JOINT RightLeg
    {
      OFFSET 39.9036 -0.000268477 0.000106433
      CHANNELS 3 Zrotation Xrotation Yrotation
      JOINT RightFoot
      {
        OFFSET 39.6689 1.17892e-005 0
        CHANNELS 3 Zrotation Xrotation Yrotation
        JOINT RightToe
        {
          OFFSET 10.1624 13.6296 0
          CHANNELS 3 Zrotation Xrotation Yrotation
          End Site
          {
            OFFSET 8.38147 0 0
          }
        }
      }
    }
  }
}
MOTION
Frames:	13
Frame Time:	0.0333333
-81.3488 89.0818 59.6627 108.139 75.0958 -14.4045 2.53775 3.66515 -0.878403 5.14734 7.28766 -1.92464 5.14733 7.28765 -1.92465 -11.3986 13.6145 -4.35544 73.091 17.2544 -16.9151 -168.638 13.8288 -90.7881 -13.9594 10.801 84.2695 -27.4454 3.66829 -17.1414 14.7767 -87.4553 16.9089 -168.407 12.6505 78.2633 -25.657 -4.45542 -82.9986 -26.3379 -3.78201 16.2225 6.7671 87.7966 -6.6943 -14.357 -15.6966 -179.859 -41.9001 0.926355 0.129773 1.90859 19.6181 -0.149743 90 2.8625e-014 6.36111e-015 -20.9749 -10.546 179.673 -27.1062 -0.364027 -0.111643 -0.98435 13.3602 1.8018 90 5.56597e-015 -3.18055e-015 
-80.7192 88.8984 58.5768 107.829 75.784 -14.2611 2.48422 3.71271 -0.95109 5.04576 7.3805 -2.06925 5.04575 7.38049 -2.06925 -11.4105 13.8317 -4.06918 72.7277 17.5608 -17.3676 -168.671 14.0656 -90.4905 -11.3106 11.0787 84.4675 -26.1437 3.40557 -16.4597 8.06667 -85.6224 10.2242 -168.446 12.9723 78.5123 -24.6897 -4.76249 -83.2095 -28.3282 -4.33954 17.2616 13.452 88.7922 -13.3754 -11.5627 -15.3655 -179.094 -41.8706 0.943104 0.202422 -0.166338 24.2304 0.531346 90 -2.22639e-014 -2.22639e-014 -21.7761 -10.621 179.409 -27.5694 -0.339278 -0.0941357 -1.18516 13.6977 1.88611 90 -2.22639e-014 -0 
-79.9703 88.8427 57.4117 107.144 76.2344 -13.6772 2.43072 3.76957 -1.0337 4.94529 7.49156 -2.23409 4.94528 7.49155 -2.23411 -11.6562 14.0399 -4.01386 73.3719 18.5935 -17.1204 -168.419 14.1808 -90.4807 -9.51554 11.4128 84.7383 -24.974 3.16955 -15.8454 6.58707 -84.5041 8.71987 -168.18 13.172 78.4553 -23.9695 -4.49049 -83.107 -29.2587 -4.61135 17.7346 75.3026 89.7051 -75.2323 -8.90641 -15.1802 -178.494 -40.6472 1.01936 0.192429 -8.51129 27.3393 4.02915 90 3.18055e-015 -3.18055e-015 -22.4246 -10.9892 178.985 -27.5897 -0.317861 -0.0842097 -1.85626 13.4448 2.0589 90 3.18055e-015 1.27222e-014 
-79.0389 88.729 56.1961 106.322 76.7666 -12.7905 2.4073 3.82748 -1.14165 4.90702 7.60314 -2.45182 4.907 7.60312 -2.45182 -12.1518 14.1227 -3.74563 74.2844 19.1227 -17.0247 -167.969 14.2206 -90.3089 -8.49394 11.5916 85.0261 -24.1294 2.99824 -15.4086 5.49249 -83.7513 7.58816 -167.73 13.2704 78.585 -22.9349 -4.38241 -83.1709 -30.6376 -5.02096 18.4284 141.985 89.537 -141.935 -5.96531 -15.0505 -178.211 -37.9035 1.08449 0.133075 -16.899 27.7742 7.76716 90 -9.54166e-015 -1.90833e-014 -23.2599 -10.5759 178.385 -27.8307 -0.292554 -0.059079 -2.57034 13.8745 2.3378 90 -7.95139e-016 -0 
-77.9615 88.4877 54.7939 105.573 77.178 -12.0494 2.31654 3.82727 -1.20348 4.72907 7.60223 -2.56979 4.72907 7.60222 -2.56981 -12.0316 14.3034 -3.75931 74.3304 19.998 -16.8525 -168.083 14.3632 -90.3182 -8.09187 11.9701 85.624 -23.8429 2.9463 -15.2687 4.3774 -83.225 6.53571 -167.835 13.4641 78.5797 -22.3386 -4.62817 -83.4447 -32.2548 -5.52825 19.2452 166.028 88.8418 -165.993 -2.93907 -14.9022 -177.934 -33.8324 1.12653 0.0397185 -23.9955 27.112 10.8147 90 0 1.11319e-014 -24.5388 -10.4765 177.704 -28.4379 -0.258929 -0.0430492 -3.41617 13.901 2.58908 90 8.74653e-015 1.90833e-014 
-76.7007 88.0975 53.2379 104.453 77.3862 -11.0098 2.26141 3.81598 -1.24421 4.62075 7.57924 -2.64731 4.62073 7.57923 -2.64732 -12.1465 14.504 -3.243 74.539 20.0695 -17.4885 -168.08 14.665 -89.8826 -8.20091 12.2422 86.3405 -24.1125 2.99621 -15.426 3.57888 -82.9366 5.73263 -167.825 13.7959 79.0541 -22.366 -4.84682 -83.5285 -34.0902 -6.11282 20.1435 174.44 87.3311 -174.426 0.0230835 -14.9249 -177.974 -28.8849 1.15646 -0.0699673 -29.1128 26.9679 13.2227 90 3.18055e-015 -3.18055e-015 -26.1157 -10.5568 176.93 -29.1711 -0.217615 -0.0286314 -4.38301 13.4891 2.77233 90 -2.78299e-014 3.18055e-015 
-75.1888 87.6682 51.4823 103.879 77.7257 -10.2556 2.21551 3.87982 -1.27324 4.53254 7.70681 -2.70535 4.53253 7.7068 -2.70536 -11.892 14.5126 -2.99329 74.4726 20.0531 -17.6953 -168.412 14.7641 -89.5845 -9.37566 12.277 87.2212 -24.5137 3.07445 -15.6661 2.90803 -82.7696 5.12386 -168.143 13.8917 79.3973 -22.2088 -5.22533 -83.2835 -35.6301 -6.63897 20.895 175.773 86.5272 -175.775 2.35675 -15.6502 -178.573 -24.3165 1.15074 -0.193254 -25.6969 26.9774 11.5824 90 -3.18055e-015 3.18055e-015 -28.0364 -10.4211 175.774 -29.9945 -0.162578 -0.00271807 -5.57143 13.2361 2.97129 90 -7.95139e-015 -6.36111e-015 
-73.5175 87.3117 49.5379 103.964 77.844 -10.2893 2.09643 3.79164 -1.28776 4.29191 7.53295 -2.72272 4.2919 7.53294 -2.72273 -11.9411 14.7473 -2.94813 74.5712 20.7113 -17.7792 -168.371 14.9907 -89.6472 -10.55 12.5444 88.0102 -25.4151 3.23531 -16.1486 2.48054 -82.9402 4.6295 -168.095 14.1199 79.4367 -22.3107 -6.00029 -83.5819 -37.7501 -7.38617 21.9067 175.749 86.4854 -175.753 3.26101 -16.0165 -179.295 -24.0342 1.09795 -0.211084 -9.48186 27.5679 4.64353 90 1.27222e-014 3.18055e-015 -29.584 -10.3319 174.809 -29.4427 -0.107078 0.0156286 -7.672 12.6629 3.30421 90 -7.95139e-015 -9.54166e-015 
-71.7261 87.07 47.4222 103.114 77.9469 -9.34186 2.19353 3.90488 -1.25139 4.48773 7.75832 -2.6611 4.48772 7.75832 -2.66112 -11.9359 14.7358 -2.73717 74.0708 20.1024 -18.3099 -168.412 15.1073 -89.4356 -12.8209 11.3145 88.6662 -25.7824 3.31158 -16.3931 2.8515 -83.2565 5.07075 -168.154 14.1451 79.6622 -21.4496 -6.07466 -83.077 -39.447 -8.03341 22.6931 175.822 86.2063 -175.813 3.10158 -15.5589 179.311 -23.6277 1.07658 -0.244178 -3.13337 24.1684 1.7774 90 -3.18055e-015 -9.54166e-015 -30.5144 -10.1579 173.854 -27.9261 -0.0676545 0.0176299 -10.3313 11.9894 3.79944 90 -1.11319e-014 -0 
-69.8894 86.8156 45.2627 101.515 77.9994 -7.66612 2.20843 3.82811 -1.24455 4.51163 7.60467 -2.65191 4.51163 7.60465 -2.65192 -11.8642 14.9124 -2.44459 74.6716 20.2451 -18.7649 -168.545 15.3941 -89.1963 -14.2567 10.7813 89.0758 -26.7447 3.51098 -16.9136 3.00662 -83.1996 5.22927 -168.286 14.3666 79.9596 -20.8226 -5.99536 -83.1508 -40.4985 -8.45318 23.175 174.41 87.0205 -174.367 3.17108 -16.1852 177.931 -22.7069 1.05692 -0.341777 3.27726 19.4041 -0.389399 90 -1.27222e-014 6.36111e-015 -30.9065 -8.94741 173.035 -26.2707 -0.039519 0.0271355 -11.7714 12.2215 4.23074 90 6.36111e-015 2.22639e-014 
-68.0265 86.6081 43.1255 100.523 77.8128 -6.62393 2.20516 3.88344 -1.23424 4.50936 7.71583 -2.62654 4.50935 7.71584 -2.62655 -11.8493 14.9267 -2.44251 75.0701 20.2183 -18.8606 -168.542 15.4674 -89.2167 -15.3929 9.82775 88.9877 -27.3692 3.62679 -17.2577 2.80892 -82.977 4.93497 -168.306 14.3481 79.9613 -19.053 -5.59223 -83.4013 -40.7869 -8.58428 23.3088 173.436 87.4098 -173.389 2.22272 -17.7967 176.697 -21.9823 1.0375 -0.415752 6.31896 16.9169 -1.06849 90 1.27222e-014 2.22639e-014 -31.0904 -7.24173 172.199 -24.2613 -0.0175898 0.0303558 -13.3124 12.0004 4.56606 90 1.19271e-014 1.59028e-014 
-66.2591 86.4922 41.0126 98.911 77.0074 -5.23778 2.15828 4.01149 -1.20209 4.41679 7.97424 -2.56441 4.41678 7.97423 -2.56442 -11.6292 15.0469 -2.11591 75.1399 20.0767 -19.3817 -168.842 15.7237 -88.9136 -15.977 9.59022 88.8274 -28.6464 3.91358 -17.9118 3.19323 -83.6258 5.31565 -168.61 14.5455 80.3344 -17.0844 -5.21985 -84.1754 -40.5526 -8.51172 23.2106 166.83 88.6826 -166.784 0.88066 -17.7806 175.905 -22.1862 1.03061 -0.430874 8.55664 15.4866 -1.45876 90 7.95139e-015 1.59028e-014 -30.8515 -4.51964 171.66 -23.2466 -0.0475762 0.0452887 -10.5499 10.7551 3.56415 90 1.66979e-014 3.18055e-015 
-64.5315 86.4165 38.9745 96.7982 75.8188 -3.15245 2.16191 4.16868 -1.20398 4.42894 8.28826 -2.57527 4.42893 8.28826 -2.57528 -11.6613 15.3144 -2.06105 75.4626 20.56 -19.6713 -168.791 16.0329 -88.961 -16.3201 9.07405 88.4251 -29.5326 4.12903 -18.3695 3.63201 -84.8238 5.81147 -168.58 14.7849 80.3276 -15.7427 -5.26338 -84.926 -40.1094 -8.35642 23.0157 164.652 88.865 -164.589 -0.872158 -16.2068 174.821 -23.3016 1.03093 -0.38209 9.67721 15.0512 -1.66677 90 -3.18055e-014 -2.54444e-014 -31.0411 -4.17528 170.494 -24.1734 -0.0900576 0.0486521 -5.08689 6.92484 1.61721 90 -3.49364e-014 -2.54444e-014 
